<svg width="100" height="100" viewBox="0 0 100 100" fill="none" xmlns="http://www.w3.org/2000/svg">
<path fill-rule="evenodd" clip-rule="evenodd" d="M73.0417 58.2083C73.6269 58.7943 73.9556 59.5885 73.9556 60.4167C73.9556 61.2448 73.6269 62.0391 73.0417 62.625L52.2084 83.4583C51.6224 84.0435 50.8282 84.3722 50 84.3722C49.1719 84.3722 48.3776 84.0435 47.7917 83.4583L26.9584 62.625C26.6513 62.3389 26.4051 61.9939 26.2343 61.6106C26.0635 61.2272 25.9716 60.8134 25.9642 60.3938C25.9568 59.9742 26.034 59.5575 26.1912 59.1683C26.3484 58.7792 26.5823 58.4258 26.879 58.129C27.1758 57.8323 27.5293 57.5983 27.9184 57.4412C28.3075 57.284 28.7243 57.2068 29.1439 57.2142C29.5635 57.2216 29.9773 57.3134 30.3606 57.4842C30.7439 57.655 31.0889 57.9013 31.375 58.2083L46.875 73.7083V39.5833C46.875 36.6125 45.9584 32.0833 43.2959 28.3875C40.7542 24.8542 36.4834 21.875 29.1667 21.875C28.3379 21.875 27.543 21.5458 26.957 20.9597C26.3709 20.3737 26.0417 19.5788 26.0417 18.75C26.0417 17.9212 26.3709 17.1263 26.957 16.5403C27.543 15.9542 28.3379 15.625 29.1667 15.625C38.5167 15.625 44.6667 19.5917 48.3709 24.7375C51.9584 29.7208 53.125 35.6125 53.125 39.5833V73.7083L68.625 58.2083C69.211 57.6231 70.0052 57.2944 70.8334 57.2944C71.6615 57.2944 72.4558 57.6231 73.0417 58.2083Z" fill="black"/>
</svg>
