<svg width="48" height="48" viewBox="0 0 48 48" fill="none" xmlns="http://www.w3.org/2000/svg">
<rect width="48" height="48" rx="10" fill="#232323"/>
<g clip-path="url(#clip0_23_86)">
<path d="M11.512 37.7573L9 7.05762L39 7.11931L36.3438 37.7573L24.1132 41.2987L11.512 37.7573Z" fill="#1B73BA"/>
<path d="M24.1133 38.3339V9.98145L36.4675 10.0226L34.2644 35.3895L24.1133 38.3339Z" fill="#1C88C7"/>
<path d="M33.3995 13.6053H14.3948L14.9096 17.3113H23.928L15.0538 21.1206L15.5684 24.7032H28.6433L28.1696 29.7064L23.7427 30.5713L19.7278 29.5419L19.4188 26.7003H15.7332L16.2272 32.6099L24.1339 34.8129L31.7113 32.404L32.679 20.8528H24.669L33.3993 17.2291L33.3995 13.6053Z" fill="white"/>
</g>
<defs>
<clipPath id="clip0_23_86">
<rect width="30" height="34.3564" fill="white" transform="translate(9 7)"/>
</clipPath>
</defs>
</svg>
