<svg width="15" height="16" viewBox="0 0 15 16" fill="none" xmlns="http://www.w3.org/2000/svg">
<path d="M3.75 6.125V5.03125C3.75 2.90313 5.31437 1.125 7.5 1.125C9.68563 1.125 11.25 2.90313 11.25 5.03125V6.125H11.5625C11.9769 6.125 12.3743 6.28962 12.6674 6.58265C12.9604 6.87567 13.125 7.2731 13.125 7.6875V12.6875C13.125 13.1019 12.9604 13.4993 12.6674 13.7924C12.3743 14.0854 11.9769 14.25 11.5625 14.25H3.4375C3.0231 14.25 2.62567 14.0854 2.33265 13.7924C2.03962 13.4993 1.875 13.1019 1.875 12.6875V7.6875C1.875 7.2731 2.03962 6.87567 2.33265 6.58265C2.62567 6.28962 3.0231 6.125 3.4375 6.125H3.75ZM2.8125 7.6875V12.6875C2.8125 12.8533 2.87835 13.0122 2.99556 13.1294C3.11277 13.2467 3.27174 13.3125 3.4375 13.3125H11.5625C11.7283 13.3125 11.8872 13.2467 12.0044 13.1294C12.1217 13.0122 12.1875 12.8533 12.1875 12.6875V7.6875C12.1875 7.52174 12.1217 7.36277 12.0044 7.24556C11.8872 7.12835 11.7283 7.0625 11.5625 7.0625H3.4375C3.27174 7.0625 3.11277 7.12835 2.99556 7.24556C2.87835 7.36277 2.8125 7.52174 2.8125 7.6875ZM4.6875 5.03125V6.125H10.3125V5.03125C10.3125 3.3625 9.11125 2.0625 7.5 2.0625C5.88875 2.0625 4.6875 3.3625 4.6875 5.03125Z" fill="#1E1E1E"/>
</svg>
