<svg width="48" height="48" viewBox="0 0 48 48" fill="none" xmlns="http://www.w3.org/2000/svg">
<rect x="0.5" y="0.5" width="47" height="47" rx="9.5" fill="white"/>
<rect x="0.5" y="0.5" width="47" height="47" rx="9.5" stroke="black"/>
<g clip-path="url(#clip0_26_44)">
<path d="M38.6758 42.5134H9.32271C6.93488 42.5134 5 40.5785 5 38.1907V8.8376C5 6.44977 6.93488 4.51489 9.32271 4.51489H38.6773C41.0636 4.51489 43 6.44977 43 8.8376V38.1922C42.9985 40.5785 41.0636 42.5134 38.6758 42.5134Z" fill="white"/>
<path d="M24.1452 7.40869L24.8687 8.76752C25.0314 9.01831 25.2077 9.24022 25.4144 9.44693C26.0224 10.0473 26.5893 10.6887 27.1106 11.3666C28.3357 12.9747 29.1626 14.7622 29.7523 16.6955C30.1064 17.875 30.298 19.0879 30.3131 20.3115C30.3724 23.973 29.117 27.1162 26.5878 29.729C26.1774 30.1424 25.7321 30.5239 25.2578 30.8644C25.007 30.8644 24.8885 30.6729 24.7851 30.495C24.5967 30.1667 24.472 29.8065 24.4158 29.4326C24.3261 28.9888 24.2684 28.5465 24.2972 28.0905V27.8838C24.2775 27.8367 24.0571 7.51357 24.1452 7.40869Z" fill="#599636"/>
<path d="M24.1452 7.36462C24.1163 7.30535 24.0859 7.34942 24.0555 7.37982C24.0707 7.67621 23.9659 7.94068 23.8047 8.19299C23.6269 8.44378 23.3913 8.63681 23.1542 8.84352C21.8425 9.97892 20.8089 11.3529 19.9821 12.8881C18.8801 14.9537 18.3132 17.1682 18.1536 19.5013C18.0807 20.3419 18.4196 23.3088 18.6856 24.1645C19.4091 26.4383 20.7071 28.3428 22.3912 29.995C22.8046 30.3932 23.2469 30.7626 23.7029 31.1182C23.8367 31.1182 23.8503 30.9997 23.8807 30.9115C23.94 30.723 23.9841 30.5315 24.0145 30.337L24.3109 28.124L24.1452 7.36462Z" fill="#6CAC48"/>
<path d="M24.8687 31.7611C24.8976 31.4221 25.0602 31.1424 25.2381 30.8613C25.0602 30.7883 24.928 30.6409 24.8247 30.4782C24.735 30.3232 24.662 30.1606 24.6043 29.9903C24.3975 29.3717 24.3535 28.7197 24.2942 28.0874V27.7043C24.2212 27.7636 24.2045 28.2652 24.2045 28.3397C24.162 29.01 24.0723 29.6742 23.9385 30.3323C23.8944 30.5983 23.8656 30.8643 23.7014 31.0999C23.7014 31.1288 23.7014 31.1592 23.7166 31.2032C23.9826 31.986 24.0556 32.7825 24.0996 33.5956V33.892C24.0996 34.2462 24.0844 34.1717 24.3793 34.2902C24.4979 34.3343 24.6301 34.3495 24.7487 34.4377C24.8383 34.4377 24.852 34.3647 24.852 34.3039L24.8079 33.816V32.4572C24.7943 32.2201 24.8383 31.9845 24.8687 31.7611Z" fill="#C2BFBF"/>
<path d="M12.2854 38.3554V39.0119C12.2854 39.0383 12.2854 39.0646 12.2901 39.0895C12.2979 39.1671 12.346 39.2152 12.4158 39.2369C12.481 39.254 12.5477 39.2664 12.6145 39.2757C12.6533 39.2804 12.6657 39.2975 12.6704 39.3394C12.675 39.4868 12.6626 39.5039 12.5198 39.4946C12.1877 39.4775 11.854 39.4728 11.5218 39.4946H11.4908C11.3868 39.4992 11.3791 39.4899 11.3791 39.3859C11.3791 39.3688 11.3837 39.3471 11.3837 39.33C11.3837 39.299 11.4054 39.2819 11.4349 39.2819C11.5048 39.2742 11.5684 39.2555 11.6336 39.2431C11.7236 39.2214 11.7764 39.1655 11.7841 39.074C11.7966 38.9746 11.7966 38.8706 11.7966 38.7713L11.8012 37.6135C11.8043 37.5452 11.7671 37.4816 11.7065 37.449C11.6289 37.4055 11.5451 37.3714 11.4598 37.345C11.4334 37.3372 11.4085 37.3326 11.3868 37.3186C11.3232 37.2876 11.3216 37.2317 11.3822 37.1975C11.4039 37.1851 11.4303 37.1758 11.4551 37.1712C11.717 37.1324 11.9744 37.0674 12.2234 36.9771C12.2746 36.9601 12.2885 36.9647 12.2932 37.0159C12.2979 37.047 12.2932 37.0858 12.2885 37.1153C12.2808 37.1712 12.2808 37.227 12.2808 37.2798C12.2808 37.3015 12.2854 37.3233 12.3072 37.3357C12.3289 37.3481 12.3506 37.3357 12.3708 37.3233C12.4608 37.2534 12.5524 37.1898 12.6517 37.1339C12.7945 37.0563 12.9451 36.9865 13.1096 36.9647C13.3082 36.9383 13.4805 36.9911 13.6326 37.1199C13.6947 37.1758 13.7506 37.2394 13.7971 37.3093C13.8406 37.3729 13.8453 37.3745 13.9011 37.331C14.0656 37.21 14.2379 37.1029 14.4242 37.0237C14.6182 36.9414 14.8168 36.929 15.0155 36.9973C15.2188 37.0703 15.357 37.2131 15.4392 37.4071C15.5091 37.5623 15.5385 37.7237 15.5385 37.8913V39.0491C15.5385 39.1267 15.5696 39.1748 15.6472 39.2136C15.7294 39.2447 15.8195 39.2618 15.9064 39.2788C15.9622 39.2913 15.9622 39.2913 15.9622 39.3487C15.9545 39.4915 15.9405 39.4992 15.8024 39.4915C15.4561 39.4713 15.1088 39.4713 14.7625 39.4915C14.6927 39.4961 14.6927 39.4961 14.6896 39.4263V39.4045C14.6849 39.2881 14.6849 39.2881 14.7982 39.2618L14.91 39.2307C14.9876 39.2121 15.0434 39.1423 15.0434 39.0615L15.0559 38.7372L15.0481 37.8913C15.045 37.8153 15.0295 37.7407 15 37.6709C14.8913 37.4071 14.6539 37.3124 14.4257 37.3388C14.2534 37.3558 14.1013 37.4257 13.9585 37.525C13.9275 37.5468 13.9073 37.5731 13.9104 37.615C13.9492 37.8913 13.9229 38.1676 13.9275 38.4438V39.0445C13.9275 39.1531 13.971 39.2043 14.0749 39.2307L14.2736 39.2742C14.3047 39.2788 14.3217 39.2913 14.3217 39.3254V39.3564C14.3171 39.4775 14.3093 39.4821 14.1883 39.4821C13.8422 39.4651 13.4976 39.4697 13.1561 39.4821C13.0397 39.4868 13.0304 39.4744 13.0351 39.3564C13.0397 39.2866 13.0475 39.2835 13.1127 39.2695L13.2555 39.2431C13.3812 39.2167 13.4278 39.1702 13.4371 39.0352L13.4495 38.7449L13.4417 37.8773C13.434 37.7687 13.4107 37.6663 13.3517 37.5669C13.2648 37.4071 13.1298 37.3248 12.9451 37.3171C12.7588 37.3046 12.5959 37.3729 12.4391 37.4598C12.3305 37.5235 12.2839 37.598 12.2917 37.7237V38.3538L12.2854 38.3554ZM20.4228 38.3818V38.9902C20.4228 39.0336 20.4259 39.0771 20.4306 39.119C20.4337 39.1779 20.4771 39.2276 20.5346 39.24C20.6091 39.2618 20.6851 39.2742 20.7627 39.2788C20.8062 39.2835 20.8139 39.3006 20.8186 39.3347V39.3657C20.8139 39.5163 20.7969 39.5349 20.6494 39.5256C20.3204 39.5039 19.9929 39.5085 19.6654 39.5256L19.5397 39.5303C19.5133 39.5303 19.5087 39.5178 19.5009 39.4992C19.4885 39.4393 19.4885 39.3775 19.5009 39.3176C19.5056 39.2913 19.5227 39.2866 19.549 39.2788C19.6127 39.2711 19.6654 39.2571 19.726 39.2478C19.8346 39.2214 19.8734 39.1779 19.8765 39.0662L19.8889 38.703V37.6399C19.8889 37.5623 19.8579 37.5142 19.7896 37.48C19.712 37.4365 19.6297 37.4071 19.5428 37.376C19.5164 37.3683 19.4916 37.359 19.4699 37.345C19.414 37.3062 19.4062 37.2503 19.4621 37.2069C19.4869 37.1867 19.5164 37.1743 19.549 37.1727C19.8253 37.1292 20.0938 37.0687 20.353 36.9647C20.384 36.9523 20.3965 36.9601 20.4089 36.9865C20.4213 37.0128 20.4259 37.0423 20.4213 37.0734L20.4089 37.2767C20.4089 37.3031 20.3964 37.3403 20.4166 37.3496C20.443 37.3667 20.4601 37.3279 20.4818 37.3186C20.6091 37.2115 20.75 37.1217 20.9009 37.0516C21.0343 36.988 21.1725 36.9477 21.3277 36.957C21.6179 36.974 21.8243 37.1215 21.9578 37.376C22.0276 37.5095 22.0571 37.6569 22.0696 37.8075L22.082 38.1241L22.0866 39.0786C22.0913 39.1516 22.1177 39.1997 22.1906 39.2261C22.2666 39.2509 22.3444 39.2696 22.4234 39.2819C22.4933 39.2897 22.4964 39.3037 22.501 39.3688V39.3906C22.4933 39.538 22.4839 39.5411 22.3365 39.5334C22.0144 39.5163 21.6917 39.5163 21.3696 39.5334C21.3261 39.538 21.2827 39.5334 21.2439 39.538C21.2175 39.538 21.2004 39.5334 21.1957 39.507C21.188 39.4511 21.1787 39.3952 21.1911 39.3347C21.1957 39.3083 21.2082 39.2959 21.2392 39.2912L21.4379 39.2602C21.5077 39.2431 21.5465 39.1966 21.5543 39.1345L21.562 39.0134L21.5574 38.1101C21.5574 38.0062 21.5527 37.9022 21.531 37.7997C21.4798 37.5778 21.3106 37.421 21.0825 37.3977C20.8838 37.376 20.7038 37.4288 20.5377 37.5359C20.4554 37.5871 20.4213 37.6616 20.4213 37.7516V38.4035C20.4213 38.3911 20.4213 38.3911 20.4259 38.3911L20.4228 38.3818Z" fill="#47474A"/>
<path d="M33.0706 37.1603C33.0224 36.8452 32.9061 36.5643 32.7027 36.3175C32.5258 36.1003 32.2976 35.9311 32.0369 35.8255C31.7653 35.7138 31.4751 35.6781 31.1817 35.6703C31.0607 35.6657 29.4108 35.6921 29.2898 35.6703C29.2587 35.6657 29.2386 35.675 29.2199 35.7014C29.1982 35.7324 29.1765 35.7666 29.1641 35.8007C29.1128 35.9171 29.1128 35.9094 29.237 35.9264C29.341 35.9435 29.4403 35.9528 29.5397 35.9823C29.6297 36.0133 29.6949 36.0646 29.7166 36.1639C29.7243 36.212 29.7337 37.7315 29.7337 38.4392L29.7166 38.9452C29.7119 38.9839 29.7088 39.0227 29.6949 39.0569C29.6778 39.1081 29.6467 39.1516 29.5955 39.1733C29.5381 39.1997 29.4776 39.2168 29.4139 39.2214C29.2975 39.2338 29.2805 39.2385 29.2417 39.3689L29.2292 39.417C29.2215 39.4728 29.2246 39.4822 29.2805 39.4822L30.5718 39.4946L31.0777 39.4868L31.4269 39.4433C31.8243 39.3704 32.1781 39.2059 32.4808 38.942C32.6531 38.7899 32.7943 38.6053 32.8952 38.3973C33.0162 38.1552 33.0675 37.8913 33.0814 37.6244C33.1047 37.4707 33.097 37.3155 33.0706 37.1603ZM32.4451 37.7734C32.428 38.0496 32.3721 38.3181 32.2294 38.5587C32.0478 38.8737 31.7886 39.0941 31.4301 39.1718C31.2748 39.2028 31.1196 39.2199 30.9567 39.1981C30.8403 39.1857 30.7285 39.1717 30.6199 39.1329C30.4259 39.0631 30.356 38.9436 30.3529 38.7543L30.3483 36.1499C30.3483 35.9947 30.4181 35.9606 30.5299 35.9559C30.699 35.9435 30.8713 35.9482 31.0389 35.9637C31.219 35.9807 31.3944 36.0242 31.562 36.0894C31.6861 36.1406 31.801 36.212 31.9034 36.3005C32.1362 36.4991 32.2914 36.749 32.3768 37.0423C32.4466 37.2798 32.4591 37.5219 32.4466 37.764L32.4451 37.7734ZM36.6604 38.1971C36.6604 38.1707 36.6604 38.149 36.6558 38.1241C36.617 37.8867 36.4913 37.7051 36.2973 37.5669C36.1715 37.4769 36.0303 37.4164 35.8829 37.3729C35.8565 37.3652 35.8348 37.3558 35.8099 37.3512C35.8146 37.3295 35.827 37.3248 35.841 37.3202C35.9279 37.2767 36.0101 37.2301 36.0831 37.165C36.2166 37.0532 36.305 36.9151 36.35 36.7459C36.3764 36.6559 36.3764 36.5643 36.3671 36.4696C36.3531 36.2446 36.2367 36.0382 36.052 35.9078C35.8534 35.7604 35.6206 35.6998 35.3785 35.6967C34.9113 35.689 34.441 35.6967 33.9754 35.6967C33.8419 35.6967 33.7085 35.7045 33.5688 35.6843C33.5424 35.6796 33.5051 35.6719 33.4865 35.7014C33.4555 35.7573 33.4167 35.8131 33.4043 35.8783C33.3996 35.9094 33.4089 35.9264 33.443 35.9295L33.741 35.973C33.8574 35.9901 33.9397 36.0552 33.949 36.1592C33.9568 36.2306 33.9614 36.3036 33.9614 36.375L33.9537 37.182L33.949 38.7791C33.949 38.8737 33.9366 38.9653 33.918 39.06C33.9087 39.1221 33.8652 39.1717 33.8062 39.1888C33.7193 39.2152 33.6371 39.24 33.547 39.24C33.4974 39.2354 33.4508 39.2664 33.4353 39.313C33.4182 39.3518 33.4043 39.3952 33.3965 39.434C33.3887 39.4853 33.4011 39.5039 33.4524 39.4977C33.4912 39.493 34.9159 39.5287 35.1845 39.5023C35.3443 39.4853 35.5011 39.4635 35.6594 39.4154C35.931 39.3285 36.1824 39.2043 36.3811 38.9917C36.5456 38.8194 36.6403 38.6115 36.648 38.3693C36.6604 38.3135 36.6604 38.2576 36.6604 38.1971ZM34.5652 36.4262L34.5776 36.0801C34.5776 36.0149 34.604 35.9854 34.6676 35.9714C34.7716 35.9497 34.8756 35.959 34.978 35.9637C35.082 35.9714 35.1813 35.9854 35.2853 36.0149C35.4747 36.0708 35.6221 36.1794 35.709 36.361C35.7478 36.4432 35.7696 36.5333 35.7696 36.6248C35.7742 36.7459 35.7649 36.8623 35.7183 36.9787C35.6454 37.1386 35.529 37.2426 35.3598 37.2721C35.1907 37.3031 34.7126 37.2891 34.6381 37.2891C34.5729 37.2891 34.5683 37.2814 34.5683 37.2162V36.8095C34.5574 36.6838 34.5574 36.5566 34.5636 36.4293L34.5652 36.4262ZM35.9682 38.7496C35.8953 38.9436 35.7603 39.0786 35.5709 39.1516C35.4669 39.1904 35.3629 39.2152 35.2543 39.2075C35.1208 39.2028 34.9873 39.2075 34.8523 39.1811C34.6707 39.1423 34.5885 38.97 34.576 38.8443C34.5543 38.6239 34.5683 38.3988 34.5636 38.2359V37.6663C34.5636 37.5964 34.5714 37.5762 34.6459 37.5762L35.0525 37.5809L35.3288 37.6119C35.5228 37.6554 35.6997 37.7283 35.8379 37.8789C35.9496 38 36.0101 38.1459 36.0241 38.3057C36.0365 38.4563 36.0288 38.6037 35.9729 38.7465L35.9682 38.7496Z" fill="#C2BFBF"/>
<path d="M24.9951 37.449L25.1069 37.4661C25.2279 37.4708 25.3707 37.4273 25.4142 37.2581C25.4375 37.1775 25.4375 37.092 25.4142 37.0114C25.3878 37.0114 25.3754 37.0331 25.363 37.0424C25.2978 37.0936 25.2248 37.1247 25.1472 37.1324C24.992 37.1495 24.8368 37.1402 24.6847 37.0843L24.4736 37.0114C24.3262 36.9632 24.171 36.9431 24.0158 36.9508C23.7954 36.9679 23.589 37.0409 23.3934 37.1448C23.1854 37.2566 23.0395 37.4258 22.9697 37.6539C22.9309 37.7874 22.9262 37.9255 22.9433 38.0637C22.9868 38.3787 23.1513 38.5991 23.4446 38.7155C23.4617 38.7202 23.4757 38.7279 23.4927 38.7326C23.5315 38.7543 23.5362 38.7761 23.5005 38.8055L23.3919 38.8785L23.1327 39.0383C23.0675 39.0771 23.0597 39.1082 23.0814 39.1765C23.1078 39.2572 23.1544 39.3286 23.2196 39.3844C23.2786 39.4357 23.3453 39.476 23.4182 39.5055C23.4664 39.5272 23.4664 39.5365 23.4229 39.5753L23.1761 39.7523C23.0939 39.8159 23.0116 39.878 22.9433 39.9602C22.8953 40.0113 22.8607 40.0735 22.8425 40.1412C22.8244 40.2089 22.8233 40.28 22.8393 40.3483C22.8719 40.4988 22.9495 40.6338 23.0644 40.7363C23.1765 40.8406 23.3131 40.9148 23.4617 40.952C23.7038 41.0219 23.9537 41.025 24.2005 40.9784C24.5543 40.9132 24.8647 40.7565 25.1069 40.4911C25.276 40.3141 25.3738 40.1061 25.3831 39.8594C25.4033 39.5629 25.2047 39.2975 24.916 39.2292L24.6832 39.1858L23.9708 39.1221C23.8932 39.1175 23.8156 39.1051 23.7504 39.0663C23.6681 39.015 23.6464 38.9157 23.6992 38.8505C23.738 38.8024 23.7861 38.7729 23.8466 38.7683L23.9847 38.7559C24.2577 38.7281 24.514 38.6114 24.7142 38.4237C24.8211 38.3245 24.8975 38.197 24.9346 38.0559C24.9858 37.8696 24.9858 37.6772 24.9423 37.4878C24.9299 37.4397 24.9346 37.4366 24.9936 37.4444L24.9951 37.449ZM23.9366 39.6002C23.963 39.6048 23.9878 39.6002 24.0142 39.6002C24.1958 39.6079 24.3821 39.6219 24.559 39.67C24.6164 39.6871 24.6738 39.7088 24.7282 39.7352C24.9004 39.8299 24.9656 39.9944 24.9439 40.1713C24.9175 40.3653 24.8104 40.5035 24.6413 40.595C24.5295 40.6587 24.4038 40.6851 24.2734 40.699C24.2253 40.7037 24.1834 40.699 24.1353 40.699C23.9847 40.7037 23.8373 40.6866 23.6945 40.6261C23.5952 40.5873 23.5129 40.5314 23.44 40.4538C23.2894 40.3033 23.218 40.027 23.4446 39.802C23.5828 39.6731 23.738 39.5831 23.9366 39.6002ZM24.4302 38.253C24.3402 38.4812 24.1399 38.551 23.9428 38.52C23.7612 38.4936 23.6278 38.3942 23.5408 38.2297C23.4291 38.0093 23.3981 37.7812 23.4633 37.5437C23.5114 37.3668 23.6184 37.2333 23.8093 37.2023C24.0515 37.1588 24.2827 37.2457 24.4053 37.4878C24.469 37.6042 24.4954 37.747 24.4954 37.9504C24.4907 38.0326 24.4736 38.1444 24.4302 38.253ZM18.9887 37.9581C18.9499 37.7253 18.863 37.5127 18.7031 37.3357C18.4657 37.0719 18.163 36.957 17.8216 36.9555C17.5236 36.9508 17.2426 37.0377 16.9928 37.193C16.746 37.3404 16.566 37.5763 16.4868 37.8541C16.4139 38.104 16.417 38.3601 16.4744 38.6146C16.6249 39.2975 17.1526 39.5909 17.7828 39.5474C17.969 39.535 18.1459 39.4745 18.3136 39.3922C18.5634 39.2758 18.745 39.0896 18.8707 38.8443C18.9701 38.641 19.0135 38.4253 19.0089 38.1785L18.9887 37.9581ZM18.3756 38.9173C18.312 39.1159 18.1382 39.2587 17.9302 39.2805C17.7409 39.3068 17.5624 39.2587 17.4041 39.147C17.2892 39.0616 17.1961 38.9514 17.1325 38.8226C16.9555 38.4594 16.9245 38.0807 17.0161 37.6912C17.0455 37.5701 17.1076 37.4615 17.1976 37.3761C17.3575 37.2286 17.5437 37.1945 17.7502 37.238C17.9488 37.2814 18.0994 37.3885 18.2235 37.553C18.3477 37.7175 18.4051 37.9069 18.4393 38.1056C18.4563 38.2049 18.4563 38.3089 18.461 38.3725C18.461 38.5805 18.4439 38.7512 18.3787 38.9173H18.3756ZM28.4251 37.9938C28.3941 37.7439 28.2994 37.5142 28.1225 37.3249C27.8897 37.0703 27.587 36.9617 27.2502 36.957C26.96 36.9524 26.6931 37.0346 26.4463 37.1774C26.17 37.3419 25.9791 37.5748 25.9062 37.8898C25.8193 38.2344 25.855 38.5975 26.0102 38.9173C26.1529 39.2199 26.3951 39.4139 26.7148 39.5008C27.0686 39.5955 27.4055 39.5521 27.7345 39.3922C28.0201 39.2541 28.2218 39.0383 28.3398 38.745C28.4096 38.5727 28.4345 38.3865 28.4391 38.1707C28.4422 38.1319 28.4329 38.0621 28.4251 37.9938ZM27.8292 38.8614C27.7593 39.0942 27.6134 39.2463 27.3666 39.2804C27.1851 39.3068 27.0128 39.2634 26.8576 39.1594C26.7241 39.0694 26.6294 38.9483 26.5596 38.8055C26.482 38.655 26.4385 38.4951 26.4215 38.3306C26.3951 38.1273 26.3951 37.9286 26.4432 37.7253C26.4525 37.6849 26.4649 37.6461 26.482 37.6089C26.603 37.3063 26.87 37.1681 27.1866 37.238C27.3977 37.2861 27.5575 37.4025 27.6786 37.5794C27.795 37.7517 27.8509 37.9426 27.8773 38.1475C27.8897 38.2297 27.8944 38.3166 27.8897 38.3896C27.8897 38.5588 27.8773 38.7139 27.8261 38.8645L27.8292 38.8614Z" fill="#47474A"/>
</g>
<defs>
<clipPath id="clip0_26_44">
<rect width="38" height="38" fill="white" transform="translate(5 4.51392)"/>
</clipPath>
</defs>
</svg>
