<svg width="48" height="49" viewBox="0 0 48 49" fill="none" xmlns="http://www.w3.org/2000/svg">
<rect y="0.5" width="48" height="48" rx="10" fill="#232323"/>
<g clip-path="url(#clip0_9_10)">
<path d="M38.8587 29.1887C38.7788 29.1887 38.7603 29.3362 38.7419 29.4991C38.6958 29.9078 38.6528 32.4739 38.3885 32.8273C38.1488 33.1438 37.8507 33.3221 36.8888 33.3221H32.8353C32.3405 33.3159 32.0363 33.1254 31.8519 32.9625C31.6614 32.7966 31.4647 32.4923 31.3879 31.933V18.3712C31.4339 17.6644 31.8857 17.1758 32.5587 17.0959C32.8199 17.0652 32.7831 17.0682 32.9951 17.0529C33.1426 17.0436 33.1826 17.0129 33.1826 16.933C33.1826 16.8132 33.0658 16.8224 32.8107 16.8224H27.9183V16.3983C27.9183 16.1063 27.9336 15.8144 27.9121 15.5778V15.5624C27.9121 15.5317 27.9091 15.4948 27.8968 15.4548C27.8568 15.1967 27.7554 15.0215 27.5126 15.0184H26.8734C26.5999 15 26.3479 15 26.225 15H24.5163C24.3012 15 24.0922 15.0092 23.8863 15.0246C22.9982 15.0676 22.1346 15.2643 21.5384 15.5501C21.1635 15.7283 20.7978 16.0018 20.5458 16.2077C20.4751 16.2661 20.4044 16.3245 20.3368 16.386C20.2692 16.4474 20.2293 16.4843 20.2293 16.4843C19.7591 16.9422 19.4087 17.4862 19.1967 18.11C19.0154 17.941 18.8402 17.8089 18.6958 17.7167C17.4635 16.9484 15.9084 16.8254 14.4456 16.8254C13.7757 16.8254 10.1955 16.8316 9.38416 16.8316C9.12909 16.8316 9.01231 16.8715 9.01231 16.9945C9.01231 17.0744 9.10451 17.1174 9.1967 17.1174H9.8144C10.4936 17.1174 10.7917 17.6675 10.8101 18.3282V32.6091C10.8101 33.1899 10.4813 33.8045 9.84514 33.8045C9.55319 33.8045 9.39338 33.8045 9.18441 33.8045C9.04612 33.8045 8.99695 33.9121 8.99695 33.9705C8.99695 34.0934 9.11373 34.1364 9.3688 34.1364H16.3264C16.5815 34.1364 16.6368 34.035 16.6368 33.9336C16.6368 33.8722 16.5907 33.7646 16.4524 33.7646C16.2434 33.7646 13.9324 33.7861 13.6067 33.7431C12.9091 33.6632 12.7708 33.2176 12.7001 32.6306C12.5833 31.7793 12.5833 28.2053 12.5833 26.2631V25.7775C12.5833 25.6761 12.6294 25.6146 12.7462 25.6146L15.6011 25.6546C15.7425 25.6546 15.8101 25.6945 15.9023 25.7775L25.3583 34.539C25.3583 34.539 24.4118 35.126 23.1979 35.1844C20.1309 35.3288 18.7972 35.212 18.791 32.6644C18.791 32.1973 18.791 31.6103 18.791 31.3798C18.791 31.177 18.7818 31.0387 18.619 31.0387C18.4837 31.0387 18.4622 31.1832 18.4622 31.4628V34.5821C18.4622 35.2735 18.3823 35.9557 18.8648 35.9619H24.2827C25.2139 35.9342 25.9177 35.6669 26.311 35.4272C27.0486 35.8666 27.2483 35.9619 27.863 35.9619H31.1481C31.3387 35.9619 31.3571 35.882 31.3571 35.7744C31.3571 35.6669 31.2619 35.6054 31.1481 35.6054C31.0406 35.6054 30.4874 35.6054 29.8482 35.5993C29.5901 35.5962 29.3012 35.5409 29.1967 35.5071C28.536 35.3042 28.0934 34.9693 27.571 34.4776C27.571 34.4776 27.9213 34.1211 27.9213 34.1303C27.9213 34.1303 35.26 34.1303 36.9287 34.1303C38.158 34.1303 38.8955 34.1641 38.9416 33.7646C38.9416 33.7646 38.9754 33.6478 38.9908 33.1776V29.5052C38.9908 29.284 38.9662 29.1856 38.8494 29.1856L38.8587 29.1887ZM16.9287 24.6404C16.394 24.9631 15.7456 25.0246 15.1863 25.0246C14.166 25.0246 13.0689 25.0092 12.7216 24.8279C12.6048 24.7664 12.5864 24.5605 12.5864 24.4591V17.8365C12.5864 17.7167 12.6571 17.6337 12.7708 17.5937C13.0043 17.5323 13.6312 17.4708 14.3288 17.4708C16.815 17.4708 18.3454 18.9889 18.3454 21.5212C18.3454 23.0608 17.7431 24.1518 16.9287 24.6404ZM26.5938 33.6017C26.3172 33.3774 19.8421 27.3479 17.485 25.1475C19.1598 24.6927 19.8359 23.6079 20.1094 22.4892C20.7517 23.2944 21.6767 24.1549 22.9429 25.1444L24.1506 26.091C26.4616 27.9041 27.6571 29.2624 27.6571 31.0264C27.6571 31.973 27.3344 32.7935 26.5907 33.6017H26.5938ZM29.6577 28.4511C29.6577 30.3903 29.6577 31.7271 29.5409 32.5753C29.4487 33.1623 29.3319 33.6048 28.8679 33.6878C28.7695 33.7062 28.7849 33.7246 28.2809 33.74C29.3811 32.2987 29.1629 30.7406 29.0799 30.043C28.8494 28.1346 27.2237 26.3829 24.0523 24.0074L23.2993 23.445C20.721 21.5273 20.177 20.3258 20.177 18.8691C20.177 18.1592 20.4659 17.4585 20.9238 16.8623C21.0406 16.724 21.2373 16.5212 21.4893 16.3645C21.7843 16.1801 22.571 15.8451 23.5083 15.799C26.5753 15.6546 27.5833 15.7714 27.5864 18.319C27.5864 18.7861 27.5864 19.3731 27.5864 19.6036C27.5864 19.8095 27.5956 19.9447 27.7585 19.9447C27.8937 19.9447 27.9152 19.8002 27.9152 19.5206V17.0559C28.1334 17.0621 28.4499 17.0805 28.6128 17.1143C29.378 17.2557 29.5624 17.5784 29.6085 18.2667C29.6546 18.9121 29.6546 19.4806 29.6546 22.6306V28.4511H29.6577Z" fill="#8DD2C9"/>
</g>
<defs>
<clipPath id="clip0_9_10">
<rect width="30" height="20.9619" fill="white" transform="translate(9 15)"/>
</clipPath>
</defs>
</svg>
