<svg width="1143" height="168" viewBox="0 0 1143 168" fill="none" xmlns="http://www.w3.org/2000/svg">
<path d="M65.4 72C65.4 73.8667 64.9333 75.2 64 76C63.2 76.8 62.2667 77.2 61.2 77.2C60 77.2 58.8 77 57.6 76.6C56.5333 76.2 55.1333 75.6667 53.4 75L50.4 73.8C50.1333 74.4667 49.9333 75.3333 49.8 76.4C49.8 77.3333 49.8 78.1333 49.8 78.8C49.8 83.4667 50 88.5333 50.4 94C50.8 99.4667 51.2667 104.933 51.8 110.4C52.3333 115.867 52.9333 121.2 53.6 126.4C54.4 131.6 55.0667 136.267 55.6 140.4C56.1333 144.667 56.6 148.2 57 151C57.4 153.933 57.6 155.8 57.6 156.6V161.6C57.6 163.067 57.4 164.4 57 165.6C56.7333 166.8 56.0667 167.4 55 167.4C53 167.4 51.2667 165.733 49.8 162.4C48.4667 159.2 47.3333 155.467 46.4 151.2C45.6 147.067 45 143 44.6 139C44.2 135.133 44 132.533 44 131.2C44 130.267 43.8 128 43.4 124.4C43.1333 120.8 42.8 116.8 42.4 112.4C42 107.867 41.6 103.333 41.2 98.8C40.9333 94.1333 40.8 90.2 40.8 87C40.8 85.6667 40.7333 84.2 40.6 82.6C40.6 80.8667 40.6 79.2667 40.6 77.8V71.6C40.6 69.4667 39.0667 67.2667 36 65C33.0667 62.7333 29.4667 60.2667 25.2 57.6C20.9333 54.8 16.5333 51.6667 12 48.2C7.46667 44.6 3.73333 40.3333 0.8 35.4C0.4 35.2667 0.2 34.6667 0.2 33.6C0.2 31.7333 0.6 30.0667 1.4 28.6C2.2 27.1333 3.26667 26.4 4.6 26.4C5 26.4 5.6 26.9333 6.4 28C7.2 28.9333 8.2 30.1333 9.4 31.6C10.6 33.0667 12 34.7333 13.6 36.6C15.2 38.3333 17 40 19 41.6C20.3333 42.8 22.2 44.3333 24.6 46.2C27 47.9333 29.3333 49.6667 31.6 51.4C34 53.1333 36.0667 54.6667 37.8 56C39.5333 57.2 40.4667 57.8 40.6 57.8C41.1333 57.8 41.4667 57.2667 41.6 56.2C41.7333 55.1333 41.8 54.4667 41.8 54.2L42.8 42.2C43.4667 35.4 44.2667 29.2667 45.2 23.8C46.2667 18.2 46.8 13.3333 46.8 9.19999C46.8 8.8 46.6667 8 46.4 6.8C46.1333 5.6 46 4.8 46 4.39999C46 3.59999 46.2667 2.99999 46.8 2.59999C47.3333 2.06666 47.9333 1.66666 48.6 1.4C49.4 0.999993 50.3333 0.733325 51.4 0.599994C53.2667 0.599994 54.6 1.33333 55.4 2.79999C56.2 4.13333 56.6 5.4 56.6 6.59999C56.6 11.4 56.2667 16.0667 55.6 20.6C55.0667 25.1333 54.4 29.6667 53.6 34.2C52.9333 38.7333 52.2667 43.4 51.6 48.2C51.0667 52.8667 50.8 57.8 50.8 63C50.8 63.8 51.2667 64.6667 52.2 65.6C53.1333 66.4 54.2667 67.2 55.6 68C57.0667 68.6667 58.6667 69.4 60.4 70.2C62.1333 70.8667 63.8 71.4667 65.4 72ZM136.891 87.4C137.157 89.1333 137.291 90.5333 137.291 91.6C137.424 92.6667 137.491 93.7333 137.491 94.8C137.491 98.1333 137.024 102.067 136.091 106.6C135.291 111.133 133.824 115.467 131.691 119.6C129.691 123.6 126.957 127.067 123.491 130C120.157 132.8 115.891 134.2 110.691 134.2C105.891 134.2 101.357 132.867 97.0906 130.2C92.824 127.4 89.024 123.867 85.6906 119.6C82.3573 115.2 79.6906 110.333 77.6906 105C75.824 99.5333 74.8906 94.1333 74.8906 88.8C74.8906 81.0667 75.3573 74.4667 76.2906 69C77.3573 63.4 78.824 58.5333 80.6906 54.4C80.6906 54 80.424 53.6 79.8906 53.2C79.4906 52.8 79.2906 52.2667 79.2906 51.6C79.2906 50.9333 79.8906 50.0667 81.0906 49C82.424 47.9333 83.9573 46.9333 85.6906 46C87.5573 44.9333 89.3573 44.0667 91.0906 43.4C92.9573 42.6 94.3573 42.2 95.2906 42.2C95.824 42.2 96.6906 42.4667 97.8906 43C99.224 43.5333 100.891 43.8 102.891 43.8C103.557 43.8 104.224 43.7333 104.891 43.6C105.557 43.4667 106.291 43.4 107.091 43.4C109.891 43.4 112.891 44.7333 116.091 47.4C119.424 49.9333 122.491 53.2667 125.291 57.4C128.224 61.5333 130.691 66.2667 132.691 71.6C134.824 76.8 136.224 82.0667 136.891 87.4ZM128.891 95.2C128.891 92.6667 128.357 89.0667 127.291 84.4C126.224 79.6 124.624 74.9333 122.491 70.4C120.357 65.7333 117.757 61.6667 114.691 58.2C111.757 54.7333 108.424 53 104.691 53C104.424 53 103.891 53 103.091 53C102.424 52.8667 101.624 52.8 100.691 52.8C99.7573 52.6667 98.8906 52.6 98.0906 52.6C97.2906 52.4667 96.824 52.4 96.6906 52.4C94.5573 52.4 92.6906 53.4 91.0906 55.4C89.624 57.4 88.3573 60 87.2906 63.2C86.3573 66.4 85.624 70.0667 85.0906 74.2C84.5573 78.3333 84.2906 82.4667 84.2906 86.6C84.2906 88.0667 84.6906 90.9333 85.4906 95.2C86.2906 99.3333 87.6906 103.667 89.6906 108.2C91.824 112.6 94.624 116.533 98.0906 120C101.557 123.467 105.957 125.2 111.291 125.2C114.891 125.2 117.824 124.133 120.091 122C122.357 119.733 124.091 117 125.291 113.8C126.624 110.6 127.557 107.333 128.091 104C128.624 100.533 128.891 97.6 128.891 95.2ZM233.555 148.2C233.555 149.8 233.155 150.8 232.355 151.2C231.555 151.733 230.621 152 229.555 152C228.755 152 227.688 151.867 226.355 151.6C225.688 151.467 224.688 150.8 223.355 149.6C222.155 148.533 220.821 147.267 219.355 145.8C217.755 144.2 216.021 142.4 214.155 140.4L204.155 129C203.888 129.4 203.288 130.267 202.355 131.6C201.421 132.8 200.221 134.133 198.755 135.6C197.421 136.933 195.821 138.133 193.955 139.2C192.088 140.267 190.088 140.8 187.955 140.8C186.488 140.8 184.688 140.333 182.555 139.4C180.555 138.6 178.488 137.4 176.355 135.8C174.221 134.2 172.088 132.267 169.955 130C167.955 127.733 166.221 125.2 164.755 122.4C162.888 118.8 161.288 115.067 159.955 111.2C158.755 107.2 157.755 103.2 156.955 99.2C156.288 95.2 155.821 91.2667 155.555 87.4C155.288 83.4 155.155 79.6667 155.155 76.2C155.155 71.2667 155.355 67.7333 155.755 65.6C156.288 63.4667 157.888 62.4 160.555 62.4C161.621 62.4 162.421 62.8 162.955 63.6C163.621 64.2667 163.955 65 163.955 65.8C163.955 73.2667 164.488 80.8667 165.555 88.6C166.621 96.2 168.155 103.2 170.155 109.6C172.155 115.867 174.621 121 177.555 125C180.621 129 184.155 131 188.155 131C189.888 131 191.421 130.4 192.755 129.2C194.088 127.867 195.155 126.333 195.955 124.6C196.888 122.867 197.555 121.2 197.955 119.6C198.355 118 198.621 116.8 198.755 116C197.955 114.133 197.088 111.667 196.155 108.6C195.355 105.4 194.621 101.933 193.955 98.2C193.288 94.4667 192.755 90.6 192.355 86.6C191.955 82.6 191.755 78.7333 191.755 75C191.755 69.2667 191.755 64.6 191.755 61C191.888 57.2667 192.155 54.4 192.555 52.4C192.955 50.2667 193.555 48.8667 194.355 48.2C195.155 47.4 196.288 47 197.755 47C198.555 47 199.288 47.2667 199.955 47.8C200.755 48.2 201.355 48.6667 201.755 49.2C202.288 49.7333 202.688 50.2667 202.955 50.8C203.221 51.3333 203.355 51.6667 203.355 51.8C203.355 52.3333 203.221 52.8 202.955 53.2C202.688 53.4667 202.555 53.8667 202.555 54.4C202.555 55.4667 202.688 57 202.955 59C203.355 61 203.755 63.0667 204.155 65.2C204.955 69.4667 205.688 74.3333 206.355 79.8C207.155 85.2667 207.555 91.6 207.555 98.8V107.2C207.555 108.267 208.088 110.467 209.155 113.8C210.355 117 212.955 121.733 216.955 128C219.621 132.267 222.088 135.667 224.355 138.2C226.755 140.733 228.688 142.733 230.155 144.2C231.088 145 231.888 145.733 232.555 146.4C233.221 147.2 233.555 147.8 233.555 148.2ZM202.955 81.4C202.821 80.6 202.621 79.6 202.355 78.4C202.088 77.2 201.755 76 201.355 74.8C201.088 73.6 200.821 72.6 200.555 71.8C200.421 71 200.355 70.6 200.355 70.6C200.355 72.0667 200.355 73.8667 200.355 76C200.488 78 200.621 80.0667 200.755 82.2C201.021 84.2 201.288 86.2 201.555 88.2C201.821 90.0667 202.155 91.6667 202.555 93C202.555 92.0667 202.621 91.1333 202.755 90.2C202.755 89.4 202.755 88.5333 202.755 87.6C202.888 86.5333 202.955 85.4667 202.955 84.4V81.4ZM313.638 110C313.638 116 312.571 120.733 310.438 124.2C308.304 127.533 305.171 130.667 301.038 133.6C299.971 134.267 298.504 135.067 296.638 136C294.771 136.933 292.704 137.8 290.438 138.6C288.171 139.4 285.771 140.067 283.238 140.6C280.704 141.133 278.371 141.4 276.238 141.4C270.238 141.4 265.704 140.733 262.638 139.4C259.571 138.2 258.038 136.733 258.038 135C258.038 133.133 258.571 131.6 259.638 130.4C260.704 129.2 261.638 128.533 262.438 128.4L264.638 130C265.304 130.667 266.238 131.4 267.438 132.2C268.638 132.867 270.571 133.2 273.238 133.2C275.771 133.2 278.838 132.8 282.438 132C286.038 131.067 289.438 129.733 292.638 128C295.971 126.133 298.771 123.867 301.038 121.2C303.438 118.533 304.638 115.467 304.638 112C304.638 108.933 302.304 106.133 297.638 103.6C293.104 100.933 285.904 99.1333 276.038 98.2C270.971 97.8 265.971 97.2 261.038 96.4C256.104 95.4667 251.638 94.2667 247.638 92.8C243.771 91.2 240.638 89.2667 238.238 87C235.838 84.6 234.638 81.6667 234.638 78.2C234.638 74.8667 235.571 71.6667 237.438 68.6C239.304 65.5333 241.571 62.7333 244.238 60.2C247.038 57.5333 249.904 55.2 252.838 53.2C255.771 51.2 258.238 49.5333 260.238 48.2C261.838 47.2667 264.038 46.0667 266.838 44.6C269.771 43 272.838 41.5333 276.038 40.2C279.371 38.7333 282.638 37.5333 285.838 36.6C289.171 35.5333 291.971 35 294.238 35C296.904 35 298.704 35.7333 299.638 37.2C300.571 38.6667 301.038 40.7333 301.038 43.4C301.038 45.6667 300.771 48.0667 300.238 50.6C299.704 53.1333 299.104 55.6 298.438 58C297.771 60.4 297.104 62.5333 296.438 64.4C295.904 66.1333 295.504 67.2667 295.238 67.8C294.704 69 294.104 69.8 293.438 70.2C292.771 70.6 292.304 70.8 292.038 70.8C291.504 70.8 291.238 70.4667 291.238 69.8C291.238 69.4 291.304 68.6667 291.438 67.6C291.704 66.4 291.971 65 292.238 63.4C292.638 61.8 292.904 60.0667 293.038 58.2C293.304 56.3333 293.438 54.4667 293.438 52.6C293.438 49.6667 293.304 47.5333 293.038 46.2C292.771 44.8667 291.704 44.2 289.838 44.2C287.971 44.2 285.438 44.7333 282.238 45.8C279.038 46.7333 275.771 47.9333 272.438 49.4C268.838 51 265.304 53.0667 261.838 55.6C258.504 58.1333 255.504 60.7333 252.838 63.4C250.171 66.0667 247.971 68.6667 246.238 71.2C244.638 73.6 243.838 75.5333 243.838 77C243.838 78.6 244.904 80.1333 247.038 81.6C249.304 82.9333 252.104 84.1333 255.438 85.2C258.904 86.2667 262.704 87.2 266.838 88C270.971 88.8 275.038 89.4 279.038 89.8C282.371 90.2 286.038 90.7333 290.038 91.4C294.038 92.0667 297.771 93.1333 301.238 94.6C304.704 96.0667 307.638 98.0667 310.038 100.6C312.438 103 313.638 106.133 313.638 110ZM404.848 110C404.848 116 403.782 120.733 401.648 124.2C399.515 127.533 396.382 130.667 392.248 133.6C391.182 134.267 389.715 135.067 387.848 136C385.982 136.933 383.915 137.8 381.648 138.6C379.382 139.4 376.982 140.067 374.448 140.6C371.915 141.133 369.582 141.4 367.448 141.4C361.448 141.4 356.915 140.733 353.848 139.4C350.782 138.2 349.248 136.733 349.248 135C349.248 133.133 349.782 131.6 350.848 130.4C351.915 129.2 352.848 128.533 353.648 128.4L355.848 130C356.515 130.667 357.448 131.4 358.648 132.2C359.848 132.867 361.782 133.2 364.448 133.2C366.982 133.2 370.048 132.8 373.648 132C377.248 131.067 380.648 129.733 383.848 128C387.182 126.133 389.982 123.867 392.248 121.2C394.648 118.533 395.848 115.467 395.848 112C395.848 108.933 393.515 106.133 388.848 103.6C384.315 100.933 377.115 99.1333 367.248 98.2C362.182 97.8 357.182 97.2 352.248 96.4C347.315 95.4667 342.848 94.2667 338.848 92.8C334.982 91.2 331.848 89.2667 329.448 87C327.048 84.6 325.848 81.6667 325.848 78.2C325.848 74.8667 326.782 71.6667 328.648 68.6C330.515 65.5333 332.782 62.7333 335.448 60.2C338.248 57.5333 341.115 55.2 344.048 53.2C346.982 51.2 349.448 49.5333 351.448 48.2C353.048 47.2667 355.248 46.0667 358.048 44.6C360.982 43 364.048 41.5333 367.248 40.2C370.582 38.7333 373.848 37.5333 377.048 36.6C380.382 35.5333 383.182 35 385.448 35C388.115 35 389.915 35.7333 390.848 37.2C391.782 38.6667 392.248 40.7333 392.248 43.4C392.248 45.6667 391.982 48.0667 391.448 50.6C390.915 53.1333 390.315 55.6 389.648 58C388.982 60.4 388.315 62.5333 387.648 64.4C387.115 66.1333 386.715 67.2667 386.448 67.8C385.915 69 385.315 69.8 384.648 70.2C383.982 70.6 383.515 70.8 383.248 70.8C382.715 70.8 382.448 70.4667 382.448 69.8C382.448 69.4 382.515 68.6667 382.648 67.6C382.915 66.4 383.182 65 383.448 63.4C383.848 61.8 384.115 60.0667 384.248 58.2C384.515 56.3333 384.648 54.4667 384.648 52.6C384.648 49.6667 384.515 47.5333 384.248 46.2C383.982 44.8667 382.915 44.2 381.048 44.2C379.182 44.2 376.648 44.7333 373.448 45.8C370.248 46.7333 366.982 47.9333 363.648 49.4C360.048 51 356.515 53.0667 353.048 55.6C349.715 58.1333 346.715 60.7333 344.048 63.4C341.382 66.0667 339.182 68.6667 337.448 71.2C335.848 73.6 335.048 75.5333 335.048 77C335.048 78.6 336.115 80.1333 338.248 81.6C340.515 82.9333 343.315 84.1333 346.648 85.2C350.115 86.2667 353.915 87.2 358.048 88C362.182 88.8 366.248 89.4 370.248 89.8C373.582 90.2 377.248 90.7333 381.248 91.4C385.248 92.0667 388.982 93.1333 392.448 94.6C395.915 96.0667 398.848 98.0667 401.248 100.6C403.648 103 404.848 106.133 404.848 110ZM474.059 68.4C474.193 68.6667 474.326 68.8667 474.459 69C474.593 69 474.659 69.1333 474.659 69.4C474.659 70.2 472.993 71.7333 469.659 74C466.326 76.1333 462.193 78.6 457.259 81.4C452.326 84.0667 447.126 86.8 441.659 89.6C436.193 92.2667 431.326 94.4667 427.059 96.2C427.059 96.4667 426.926 97.3333 426.659 98.8C426.393 100.267 426.259 101.2 426.259 101.6V105.4C426.259 108.467 426.726 111.533 427.659 114.6C428.593 117.533 429.993 120.2 431.859 122.6C433.859 125 436.259 126.933 439.059 128.4C441.859 129.867 445.126 130.6 448.859 130.6C450.459 130.6 452.393 130.333 454.659 129.8C457.059 129.133 459.326 128.267 461.459 127.2C463.726 126 465.726 124.6 467.459 123C469.193 121.4 470.259 119.6 470.659 117.6C472.259 117.733 473.193 118.2 473.459 119C473.859 119.8 474.059 120.333 474.059 120.6C474.059 124.067 473.193 127.067 471.459 129.6C469.859 132 467.793 134 465.259 135.6C462.859 137.067 460.259 138.2 457.459 139C454.793 139.667 452.393 140 450.259 140C438.793 140 430.459 136.8 425.259 130.4C420.059 124 417.459 115.6 417.459 105.2C417.459 104.667 417.593 103.467 417.859 101.6C418.126 99.7333 418.259 98.4667 418.259 97.8C418.259 97.6667 417.993 97.5333 417.459 97.4C416.926 97.1333 416.326 96.8667 415.659 96.6C415.126 96.3333 414.593 95.9333 414.059 95.4C413.659 94.7333 413.459 93.8667 413.459 92.8C413.459 91.7333 413.859 90.8667 414.659 90.2C415.459 89.5333 416.393 88.9333 417.459 88.4L419.459 87.2C420.659 82.1333 422.059 77.2667 423.659 72.6C425.393 67.8 427.526 63 430.059 58.2C428.993 58.2 427.859 58.0667 426.659 57.8C425.459 57.5333 424.859 56.6 424.859 55C424.859 53.1333 425.926 51.0667 428.059 48.8C430.326 46.5333 432.859 44.4 435.659 42.4C438.593 40.4 441.459 38.7333 444.259 37.4C447.059 35.9333 449.059 35.2 450.259 35.2C450.793 35.2 451.126 35.3333 451.259 35.6C451.526 35.7333 451.926 35.8 452.459 35.8C453.526 35.8 454.859 35.6 456.459 35.2C458.193 34.8 459.993 34.3333 461.859 33.8C463.726 33.2667 465.459 32.8 467.059 32.4C468.793 32 470.193 31.8 471.259 31.8C472.459 31.8 473.326 32.2 473.859 33C474.526 33.8 474.859 34.6667 474.859 35.6C474.859 36.6667 474.193 37.4667 472.859 38C471.526 38.4 470.326 38.7333 469.259 39C465.526 39.6667 461.593 40.8667 457.459 42.6C453.459 44.2 449.726 46 446.259 48C444.926 49.4667 443.326 51.6 441.459 54.4C439.593 57.0667 437.793 60.1333 436.059 63.6C434.326 67.0667 432.726 70.6667 431.259 74.4C429.926 78.1333 429.059 81.6667 428.659 85L432.059 83.4C442.326 78.4667 450.659 74.6 457.059 71.8C463.593 69 468.659 67.6 472.259 67.6C472.926 67.6 473.526 67.8667 474.059 68.4ZM552.888 31.6C552.888 32.1333 552.688 32.5333 552.288 32.8C551.888 33.0667 551.488 33.3333 551.088 33.6C550.554 33.8667 549.954 34.0667 549.288 34.2C548.221 34.2 547.288 34.1333 546.488 34C545.688 33.8667 544.754 33.8 543.688 33.8C542.221 33.8 539.288 34.6667 534.888 36.4C530.621 38 526.154 40.0667 521.488 42.6C516.821 45.1333 512.621 47.8 508.888 50.6C505.288 53.4 503.421 55.8667 503.288 58L505.688 71.6C506.354 75.0667 506.888 78.2 507.288 81C507.821 83.8 508.154 85.2 508.288 85.2C508.554 85.0667 509.421 84.5333 510.888 83.6C512.488 82.5333 514.421 81.4 516.688 80.2C518.954 78.8667 521.421 77.4667 524.088 76C526.888 74.5333 529.554 73.2 532.088 72C534.621 70.8 536.954 69.8 539.088 69C541.221 68.2 542.888 67.8 544.088 67.8C545.021 67.8 545.821 68 546.488 68.4C547.288 68.8 547.688 69.5333 547.688 70.6C547.688 71.4 546.754 72.5333 544.888 74C543.021 75.4667 540.688 77.0667 537.888 78.8C535.088 80.5333 532.021 82.4 528.688 84.4C525.488 86.2667 522.488 88.0667 519.688 89.8C516.888 91.4 514.554 92.9333 512.688 94.4C510.821 95.7333 509.888 96.7333 509.888 97.4C509.888 98.0667 510.088 100.2 510.488 103.8C511.021 107.267 511.688 111.133 512.488 115.4C513.421 119.667 514.421 123.8 515.488 127.8C516.688 131.8 517.954 134.6 519.288 136.2C519.554 136.467 519.688 136.867 519.688 137.4C519.688 138.2 519.154 139.067 518.088 140C517.021 141.067 516.088 141.6 515.288 141.6C514.221 141.6 513.088 140.6 511.888 138.6C510.821 136.6 509.821 134.067 508.888 131C507.954 127.933 507.021 124.667 506.088 121.2C505.288 117.733 504.554 114.467 503.888 111.4C503.354 108.333 502.888 105.8 502.488 103.8C502.088 101.8 501.821 100.8 501.688 100.8C501.288 100.8 500.354 101.067 498.888 101.6C497.421 102 495.888 102.2 494.288 102.2C493.088 102.2 492.021 101.733 491.088 100.8C490.288 99.7333 489.888 98.6667 489.888 97.6C489.888 96.5333 490.221 95.6 490.888 94.8C491.554 94 492.354 93.2667 493.288 92.6C494.221 91.9333 495.221 91.3333 496.288 90.8C497.354 90.2667 498.288 89.7333 499.088 89.2L493.488 51C493.488 49.9333 493.688 48.8667 494.088 47.8C494.488 46.6 495.354 46 496.688 46C496.954 46 497.354 46.3333 497.888 47C498.421 47.5333 498.821 47.8 499.088 47.8C499.488 47.5333 501.221 46.2 504.288 43.8C507.354 41.2667 511.088 38.6 515.488 35.8C520.021 32.8667 524.821 30.2667 529.888 28C535.088 25.6 539.888 24.4 544.288 24.4C546.021 24.4 547.888 25.1333 549.888 26.6C551.888 28.0667 552.888 29.7333 552.888 31.6ZM802.7 110C802.7 116 801.633 120.733 799.5 124.2C797.367 127.533 794.233 130.667 790.1 133.6C789.033 134.267 787.567 135.067 785.7 136C783.833 136.933 781.767 137.8 779.5 138.6C777.233 139.4 774.833 140.067 772.3 140.6C769.767 141.133 767.433 141.4 765.3 141.4C759.3 141.4 754.767 140.733 751.7 139.4C748.633 138.2 747.1 136.733 747.1 135C747.1 133.133 747.633 131.6 748.7 130.4C749.767 129.2 750.7 128.533 751.5 128.4L753.7 130C754.367 130.667 755.3 131.4 756.5 132.2C757.7 132.867 759.633 133.2 762.3 133.2C764.833 133.2 767.9 132.8 771.5 132C775.1 131.067 778.5 129.733 781.7 128C785.033 126.133 787.833 123.867 790.1 121.2C792.5 118.533 793.7 115.467 793.7 112C793.7 108.933 791.367 106.133 786.7 103.6C782.167 100.933 774.967 99.1333 765.1 98.2C760.033 97.8 755.033 97.2 750.1 96.4C745.167 95.4667 740.7 94.2667 736.7 92.8C732.833 91.2 729.7 89.2667 727.3 87C724.9 84.6 723.7 81.6667 723.7 78.2C723.7 74.8667 724.633 71.6667 726.5 68.6C728.367 65.5333 730.633 62.7333 733.3 60.2C736.1 57.5333 738.967 55.2 741.9 53.2C744.833 51.2 747.3 49.5333 749.3 48.2C750.9 47.2667 753.1 46.0667 755.9 44.6C758.833 43 761.9 41.5333 765.1 40.2C768.433 38.7333 771.7 37.5333 774.9 36.6C778.233 35.5333 781.033 35 783.3 35C785.967 35 787.767 35.7333 788.7 37.2C789.633 38.6667 790.1 40.7333 790.1 43.4C790.1 45.6667 789.833 48.0667 789.3 50.6C788.767 53.1333 788.167 55.6 787.5 58C786.833 60.4 786.167 62.5333 785.5 64.4C784.967 66.1333 784.567 67.2667 784.3 67.8C783.767 69 783.167 69.8 782.5 70.2C781.833 70.6 781.367 70.8 781.1 70.8C780.567 70.8 780.3 70.4667 780.3 69.8C780.3 69.4 780.367 68.6667 780.5 67.6C780.767 66.4 781.033 65 781.3 63.4C781.7 61.8 781.967 60.0667 782.1 58.2C782.367 56.3333 782.5 54.4667 782.5 52.6C782.5 49.6667 782.367 47.5333 782.1 46.2C781.833 44.8667 780.767 44.2 778.9 44.2C777.033 44.2 774.5 44.7333 771.3 45.8C768.1 46.7333 764.833 47.9333 761.5 49.4C757.9 51 754.367 53.0667 750.9 55.6C747.567 58.1333 744.567 60.7333 741.9 63.4C739.233 66.0667 737.033 68.6667 735.3 71.2C733.7 73.6 732.9 75.5333 732.9 77C732.9 78.6 733.967 80.1333 736.1 81.6C738.367 82.9333 741.167 84.1333 744.5 85.2C747.967 86.2667 751.767 87.2 755.9 88C760.033 88.8 764.1 89.4 768.1 89.8C771.433 90.2 775.1 90.7333 779.1 91.4C783.1 92.0667 786.833 93.1333 790.3 94.6C793.767 96.0667 796.7 98.0667 799.1 100.6C801.5 103 802.7 106.133 802.7 110ZM876.511 147.8C876.644 148.333 876.711 148.8 876.711 149.2C876.711 149.733 876.711 150.133 876.711 150.4C876.711 151.733 876.378 152.667 875.711 153.2C875.178 153.733 874.044 154 872.311 154C870.711 154 869.644 153.733 869.111 153.2C868.311 152.4 867.244 150.333 865.911 147C864.578 143.667 863.178 139.733 861.711 135.2C860.244 130.667 858.778 125.8 857.311 120.6C855.978 115.4 854.778 110.467 853.711 105.8C852.244 106.467 850.244 107.2 847.711 108C845.178 108.667 842.578 109.333 839.911 110C836.844 110.667 833.644 111.4 830.311 112.2C829.111 117.933 828.178 122.867 827.511 127C826.978 131 826.444 134.333 825.911 137C825.511 139.533 824.911 141.4 824.111 142.6C823.444 143.933 822.311 144.6 820.711 144.6C819.644 144.6 818.711 144 817.911 142.8C817.111 141.6 816.711 139.8 816.711 137.4C816.711 136.2 817.044 133.4 817.711 129C818.378 124.6 819.111 119.733 819.911 114.4C820.711 108.933 821.511 103.533 822.311 98.2C823.111 92.8667 823.644 88.6667 823.911 85.6C824.044 84 824.444 81.4 825.111 77.8C825.911 74.2 826.711 70.5333 827.511 66.8C828.311 62.9333 829.111 59.4667 829.911 56.4C830.711 53.3333 831.244 51.6 831.511 51.2C833.644 46.2667 834.978 41.2 835.511 36C836.178 30.8 836.644 26.0667 836.911 21.8C837.311 17.4 837.911 13.8667 838.711 11.2C839.511 8.39999 841.178 6.99999 843.711 6.99999C844.378 6.99999 845.044 7.53333 845.711 8.6C846.511 9.66666 847.244 10.9333 847.911 12.4C848.578 13.8667 849.111 15.3333 849.511 16.8C849.911 18.1333 850.178 19.2 850.311 20C850.444 20.8 850.578 22.4 850.711 24.8C850.978 27.2 851.178 29.8667 851.311 32.8C851.578 35.6 851.778 38.4 851.911 41.2C852.178 43.8667 852.378 45.9333 852.511 47.4C852.911 51.8 853.511 56.7333 854.311 62.2C855.244 67.6667 856.178 72.8 857.111 77.6C858.044 82.4 858.911 86.4667 859.711 89.8C860.511 93 861.111 94.6 861.511 94.6C862.044 94.6 862.711 94.4667 863.511 94.2C864.444 93.9333 865.311 93.8 866.111 93.8C867.178 93.8 867.711 94.3333 867.711 95.4C867.711 96.4667 867.444 97.3333 866.911 98C866.378 98.6667 865.778 99.2667 865.111 99.8C864.578 100.333 864.044 100.8 863.511 101.2C863.111 101.6 862.911 102.067 862.911 102.6C862.911 103.667 863.511 106.4 864.711 110.8L867.911 122.6C868.178 123.667 868.778 125.467 869.711 128C870.644 130.533 871.578 133.2 872.511 136C873.578 138.667 874.511 141.133 875.311 143.4C876.111 145.8 876.511 147.267 876.511 147.8ZM832.111 102C832.911 102 834.378 101.8 836.511 101.4C838.644 100.867 840.844 100.267 843.111 99.6C845.378 98.9333 847.378 98.2667 849.111 97.6C850.844 96.9333 851.711 96.4 851.711 96C851.711 95.6 851.444 94.6 850.911 93C850.511 91.2667 849.978 89.1333 849.311 86.6C848.778 83.9333 848.178 80.9333 847.511 77.6C846.844 74.2667 846.244 70.7333 845.711 67C845.444 64.6 845.111 61.3333 844.711 57.2C844.311 53.0667 843.911 49 843.511 45C843.111 40.8667 842.778 37.3333 842.511 34.4C842.244 31.4667 842.111 30 842.111 30C842.111 30 841.911 31 841.511 33C841.111 34.8667 840.644 37 840.111 39.4C839.711 41.6667 839.311 43.8667 838.911 46C838.644 48 838.511 49.1333 838.511 49.4V55C838.511 55.2667 838.311 56.4667 837.911 58.6C837.644 60.6 837.244 63.2 836.711 66.4C836.178 69.4667 835.578 72.8667 834.911 76.6C834.378 80.2 833.844 83.6667 833.311 87C832.778 90.3333 832.311 93.3333 831.911 96C831.644 98.5333 831.511 100.267 831.511 101.2C831.511 101.733 831.711 102 832.111 102ZM953.561 82C953.561 82.6667 953.228 83.2 952.561 83.6C952.028 84 951.361 84.3333 950.561 84.6C949.894 84.8667 949.161 85.2 948.361 85.6C947.561 85.8667 946.961 86.2 946.561 86.6L947.961 96C948.761 101.2 949.428 106.267 949.961 111.2C950.628 116.133 950.961 120.8 950.961 125.2C950.961 128.667 950.561 131.8 949.761 134.6C949.094 137.267 947.828 138.6 945.961 138.6C945.028 138.6 944.161 137.467 943.361 135.2C942.694 132.8 942.094 130.133 941.561 127.2C941.161 124.133 940.828 121.133 940.561 118.2C940.428 115.133 940.361 112.933 940.361 111.6C940.361 110.667 940.294 109.2 940.161 107.2C940.028 105.067 939.828 102.867 939.561 100.6C939.294 98.2 939.028 96 938.761 94C938.494 91.8667 938.294 90.2667 938.161 89.2C935.894 89.3333 932.828 89.6667 928.961 90.2C925.094 90.6 920.361 91.5333 914.761 93V95.4C914.761 98.3333 914.894 101.6 915.161 105.2C915.428 108.667 915.694 112.267 915.961 116C916.361 119.6 916.694 123.267 916.961 127C917.228 130.6 917.361 134.067 917.361 137.4C917.361 138.733 917.228 139.8 916.961 140.6C916.694 141.533 916.094 142 915.161 142C913.561 142 912.294 141.2 911.361 139.6C910.561 138 909.961 136.133 909.561 134C909.161 131.733 908.828 129.4 908.561 127C908.428 124.6 908.294 122.6 908.161 121C907.628 117.533 907.161 113.533 906.761 109C906.494 104.333 906.228 99.6 905.961 94.8C905.428 94.8 904.761 94.6667 903.961 94.4C903.161 94 902.361 93.6 901.561 93.2C900.761 92.6667 900.094 92.1333 899.561 91.6C899.028 91.0667 898.761 90.4667 898.761 89.8C898.761 88.2 899.494 86.9333 900.961 86C902.428 84.9333 904.028 84.0667 905.761 83.4C905.628 82.2 905.561 80.9333 905.561 79.6C905.561 78.1333 905.561 75.6667 905.561 72.2C905.561 70.7333 905.561 68.6 905.561 65.8C905.561 62.8667 905.561 59.6 905.561 56C905.561 52.2667 905.561 48.2 905.561 43.8C905.694 39.4 905.761 34.9333 905.761 30.4C905.894 29.3333 906.228 28.0667 906.761 26.6C907.294 25 908.161 24.2 909.361 24.2C910.294 24.2 911.094 24.6 911.761 25.4C912.428 26.0667 912.961 26.9333 913.361 28C913.761 29.0667 914.028 30.2 914.161 31.4C914.428 32.4667 914.561 33.4 914.561 34.2V82C915.761 82 917.361 81.9333 919.361 81.8C921.361 81.6667 923.428 81.5333 925.561 81.4C927.694 81.1333 929.761 80.8667 931.761 80.6C933.894 80.3333 935.628 80.0667 936.961 79.8L932.361 37.8C932.228 36.8667 932.094 35.8667 931.961 34.8C931.961 33.7333 931.961 32.8667 931.961 32.2C931.961 29.5333 932.294 27.4 932.961 25.8C933.761 24.0667 934.894 23.2 936.361 23.2C938.228 23.2 939.361 24.0667 939.761 25.8C940.161 27.5333 940.428 30.0667 940.561 33.4C940.694 35.5333 940.828 37.6667 940.961 39.8C941.094 41.8 941.294 43.8 941.561 45.8L946.161 79.6C947.761 79.6 949.361 79.7333 950.961 80C952.694 80.1333 953.561 80.8 953.561 82ZM1037.33 123.8C1037.33 124.733 1036.93 125.467 1036.13 126C1034.93 126.8 1032.86 127.933 1029.93 129.4C1026.99 130.867 1023.73 132.4 1020.13 134C1016.66 135.6 1012.99 137.267 1009.13 139C1005.26 140.733 1001.73 142.267 998.528 143.6C995.328 144.933 992.595 146 990.328 146.8C988.195 147.733 987.061 148.2 986.928 148.2C985.861 148.2 984.661 147 983.328 144.6C982.128 142.2 980.928 139 979.728 135C978.528 130.867 977.395 126.133 976.328 120.8C975.261 115.333 974.261 109.6 973.328 103.6C972.528 97.6 971.861 91.5333 971.328 85.4C970.928 79.1333 970.728 73.1333 970.728 67.4C970.728 58.8667 971.128 52.2 971.928 47.4C972.861 42.6 973.861 39 974.928 36.6C976.128 34.2 977.195 32.7333 978.128 32.2C979.061 31.5333 979.595 31.2 979.728 31.2C980.795 31.2 981.661 31.6667 982.328 32.6C982.995 33.5333 983.328 34.4667 983.328 35.4C983.328 35.9333 983.061 36.8667 982.528 38.2C981.995 39.5333 981.395 41.4 980.728 43.8C980.195 46.2 979.661 49.2667 979.128 53C978.728 56.7333 978.528 61.2667 978.528 66.6C978.528 71.4 978.728 76.4 979.128 81.6C979.661 86.8 980.328 91.9333 981.128 97C981.928 102.067 982.795 106.867 983.728 111.4C984.795 115.933 985.861 119.933 986.928 123.4C987.995 126.867 988.995 129.667 989.928 131.8C990.861 133.8 991.728 134.8 992.528 134.8C992.661 134.8 993.528 134.467 995.128 133.8C996.728 133.133 998.728 132.333 1001.13 131.4C1003.53 130.333 1006.13 129.333 1008.93 128.4C1011.86 127.333 1014.79 126.4 1017.73 125.6C1019.06 125.2 1020.59 124.8 1022.33 124.4C1024.19 123.867 1025.93 123.4 1027.53 123C1029.13 122.6 1030.53 122.267 1031.73 122C1033.06 121.733 1033.86 121.6 1034.13 121.6C1036.26 121.6 1037.33 122.333 1037.33 123.8ZM1142.49 110.4C1142.49 112.933 1140.95 114.8 1137.89 116C1134.82 117.2 1131.22 118.467 1127.09 119.8C1123.09 121 1119.22 122.133 1115.49 123.2C1111.75 124.133 1108.42 125.067 1105.49 126C1102.69 126.8 1100.95 127.4 1100.29 127.8C1100.29 128.067 1100.29 128.4 1100.29 128.8C1100.29 129.2 1100.35 129.6 1100.49 130L1101.09 134.8C1101.09 136 1100.89 136.933 1100.49 137.6C1100.22 138.267 1099.55 138.6 1098.49 138.6C1097.29 138.6 1096.42 138.267 1095.89 137.6C1095.49 136.8 1095.09 135.933 1094.69 135C1094.42 133.933 1094.15 132.867 1093.89 131.8C1093.75 130.733 1093.42 129.933 1092.89 129.4C1092.62 129.4 1091.55 129.667 1089.69 130.2C1087.82 130.733 1085.42 131.4 1082.49 132.2C1079.69 133 1076.49 133.933 1072.89 135C1069.42 135.933 1066.02 136.8 1062.69 137.6C1059.35 138.4 1056.22 139.067 1053.29 139.6C1050.35 140.133 1048.09 140.4 1046.49 140.4C1042.89 140.4 1041.09 139.267 1041.09 137C1041.09 135.267 1041.55 134 1042.49 133.2C1043.55 132.4 1044.75 131.8 1046.09 131.4C1046.35 131.267 1047.62 130.933 1049.89 130.4C1052.29 129.867 1055.15 129.267 1058.49 128.6C1061.82 127.8 1065.35 126.933 1069.09 126C1072.95 125.067 1076.49 124.2 1079.69 123.4C1083.02 122.6 1085.69 121.867 1087.69 121.2C1089.82 120.533 1090.89 120.067 1090.89 119.8C1090.89 119 1090.55 117.533 1089.89 115.4C1089.35 113.267 1088.82 111.267 1088.29 109.4L1087.09 105.4C1085.22 96.8667 1083.75 88.2667 1082.69 79.6C1081.62 70.9333 1080.75 62.4 1080.09 54C1079.82 53.7333 1079.49 53.6 1079.09 53.6C1078.42 53.6 1076.69 54.2667 1073.89 55.6C1071.09 56.9333 1068.09 58.4 1064.89 60C1061.69 61.4667 1058.69 62.8667 1055.89 64.2C1053.22 65.5333 1051.62 66.2 1051.09 66.2C1050.15 66.2 1049.22 65.8 1048.29 65C1047.49 64.2 1047.09 63.4 1047.09 62.6C1047.09 61.5333 1047.95 60.3333 1049.69 59C1051.42 57.5333 1053.55 56.0667 1056.09 54.6C1058.75 53 1061.62 51.5333 1064.69 50.2C1067.89 48.7333 1070.89 47.4667 1073.69 46.4C1076.62 45.2 1079.09 44.2667 1081.09 43.6C1083.22 42.9333 1084.62 42.6 1085.29 42.6C1086.35 42.6 1087.75 42.4 1089.49 42C1091.22 41.6 1093.09 41.1333 1095.09 40.6C1097.09 40.0667 1099.09 39.6 1101.09 39.2C1103.22 38.8 1105.09 38.6 1106.69 38.6C1108.42 38.6 1109.29 39.2 1109.29 40.4C1109.29 41.0667 1109.02 41.6 1108.49 42L1102.69 43.6C1101.22 44 1099.62 44.4667 1097.89 45C1096.29 45.4 1094.75 45.9333 1093.29 46.6C1091.95 47.1333 1090.82 47.8 1089.89 48.6C1089.09 49.2667 1088.69 50 1088.69 50.8C1088.69 54.1333 1089.02 58.5333 1089.69 64C1090.49 69.3333 1091.35 75.1333 1092.29 81.4C1093.35 87.5333 1094.49 93.8 1095.69 100.2C1096.89 106.6 1097.89 112.6 1098.69 118.2L1134.49 109C1135.29 108.867 1136.09 108.667 1136.89 108.4C1137.55 108.133 1138.22 107.933 1138.89 107.8C1139.55 107.667 1140.15 107.6 1140.69 107.6C1141.89 107.6 1142.49 108.533 1142.49 110.4Z" fill="black"/>
</svg>
