<svg width="48" height="48" viewBox="0 0 48 48" fill="none" xmlns="http://www.w3.org/2000/svg">
<rect width="48" height="48" rx="10" fill="#232323"/>
<path d="M20.01 21.95C20.01 22.23 19.94 22.43 19.8 22.55C19.68 22.67 19.54 22.73 19.38 22.73C19.2 22.73 19.02 22.7 18.84 22.64C18.68 22.58 18.47 22.5 18.21 22.4L17.76 22.22C17.72 22.32 17.69 22.45 17.67 22.61C17.67 22.75 17.67 22.87 17.67 22.97C17.67 23.67 17.7 24.43 17.76 25.25C17.82 26.07 17.89 26.89 17.97 27.71C18.05 28.53 18.14 29.33 18.24 30.11C18.36 30.89 18.46 31.59 18.54 32.21C18.62 32.85 18.69 33.38 18.75 33.8C18.81 34.24 18.84 34.52 18.84 34.64V35.39C18.84 35.61 18.81 35.81 18.75 35.99C18.71 36.17 18.61 36.26 18.45 36.26C18.15 36.26 17.89 36.01 17.67 35.51C17.47 35.03 17.3 34.47 17.16 33.83C17.04 33.21 16.95 32.6 16.89 32C16.83 31.42 16.8 31.03 16.8 30.83C16.8 30.69 16.77 30.35 16.71 29.81C16.67 29.27 16.62 28.67 16.56 28.01C16.5 27.33 16.44 26.65 16.38 25.97C16.34 25.27 16.32 24.68 16.32 24.2C16.32 24 16.31 23.78 16.29 23.54C16.29 23.28 16.29 23.04 16.29 22.82V21.89C16.29 21.57 16.06 21.24 15.6 20.9C15.16 20.56 14.62 20.19 13.98 19.79C13.34 19.37 12.68 18.9 12 18.38C11.32 17.84 10.76 17.2 10.32 16.46C10.26 16.44 10.23 16.35 10.23 16.19C10.23 15.91 10.29 15.66 10.41 15.44C10.53 15.22 10.69 15.11 10.89 15.11C10.95 15.11 11.04 15.19 11.16 15.35C11.28 15.49 11.43 15.67 11.61 15.89C11.79 16.11 12 16.36 12.24 16.64C12.48 16.9 12.75 17.15 13.05 17.39C13.25 17.57 13.53 17.8 13.89 18.08C14.25 18.34 14.6 18.6 14.94 18.86C15.3 19.12 15.61 19.35 15.87 19.55C16.13 19.73 16.27 19.82 16.29 19.82C16.37 19.82 16.42 19.74 16.44 19.58C16.46 19.42 16.47 19.32 16.47 19.28L16.62 17.48C16.72 16.46 16.84 15.54 16.98 14.72C17.14 13.88 17.22 13.15 17.22 12.53C17.22 12.47 17.2 12.35 17.16 12.17C17.12 11.99 17.1 11.87 17.1 11.81C17.1 11.69 17.14 11.6 17.22 11.54C17.3 11.46 17.39 11.4 17.49 11.36C17.61 11.3 17.75 11.26 17.91 11.24C18.19 11.24 18.39 11.35 18.51 11.57C18.63 11.77 18.69 11.96 18.69 12.14C18.69 12.86 18.64 13.56 18.54 14.24C18.46 14.92 18.36 15.6 18.24 16.28C18.14 16.96 18.04 17.66 17.94 18.38C17.86 19.08 17.82 19.82 17.82 20.6C17.82 20.72 17.89 20.85 18.03 20.99C18.17 21.11 18.34 21.23 18.54 21.35C18.76 21.45 19 21.56 19.26 21.68C19.52 21.78 19.77 21.87 20.01 21.95ZM36.1636 27.65C36.1636 28.55 36.0036 29.26 35.6836 29.78C35.3636 30.28 34.8936 30.75 34.2736 31.19C34.1136 31.29 33.8936 31.41 33.6136 31.55C33.3336 31.69 33.0236 31.82 32.6836 31.94C32.3436 32.06 31.9836 32.16 31.6036 32.24C31.2236 32.32 30.8736 32.36 30.5536 32.36C29.6536 32.36 28.9736 32.26 28.5136 32.06C28.0536 31.88 27.8236 31.66 27.8236 31.4C27.8236 31.12 27.9036 30.89 28.0636 30.71C28.2236 30.53 28.3636 30.43 28.4836 30.41L28.8136 30.65C28.9136 30.75 29.0536 30.86 29.2336 30.98C29.4136 31.08 29.7036 31.13 30.1036 31.13C30.4836 31.13 30.9436 31.07 31.4836 30.95C32.0236 30.81 32.5336 30.61 33.0136 30.35C33.5136 30.07 33.9336 29.73 34.2736 29.33C34.6336 28.93 34.8136 28.47 34.8136 27.95C34.8136 27.49 34.4636 27.07 33.7636 26.69C33.0836 26.29 32.0036 26.02 30.5236 25.88C29.7636 25.82 29.0136 25.73 28.2736 25.61C27.5336 25.47 26.8636 25.29 26.2636 25.07C25.6836 24.83 25.2136 24.54 24.8536 24.2C24.4936 23.84 24.3136 23.4 24.3136 22.88C24.3136 22.38 24.4536 21.9 24.7336 21.44C25.0136 20.98 25.3536 20.56 25.7536 20.18C26.1736 19.78 26.6036 19.43 27.0436 19.13C27.4836 18.83 27.8536 18.58 28.1536 18.38C28.3936 18.24 28.7236 18.06 29.1436 17.84C29.5836 17.6 30.0436 17.38 30.5236 17.18C31.0236 16.96 31.5136 16.78 31.9936 16.64C32.4936 16.48 32.9136 16.4 33.2536 16.4C33.6536 16.4 33.9236 16.51 34.0636 16.73C34.2036 16.95 34.2736 17.26 34.2736 17.66C34.2736 18 34.2336 18.36 34.1536 18.74C34.0736 19.12 33.9836 19.49 33.8836 19.85C33.7836 20.21 33.6836 20.53 33.5836 20.81C33.5036 21.07 33.4436 21.24 33.4036 21.32C33.3236 21.5 33.2336 21.62 33.1336 21.68C33.0336 21.74 32.9636 21.77 32.9236 21.77C32.8436 21.77 32.8036 21.72 32.8036 21.62C32.8036 21.56 32.8136 21.45 32.8336 21.29C32.8736 21.11 32.9136 20.9 32.9536 20.66C33.0136 20.42 33.0536 20.16 33.0736 19.88C33.1136 19.6 33.1336 19.32 33.1336 19.04C33.1336 18.6 33.1136 18.28 33.0736 18.08C33.0336 17.88 32.8736 17.78 32.5936 17.78C32.3136 17.78 31.9336 17.86 31.4536 18.02C30.9736 18.16 30.4836 18.34 29.9836 18.56C29.4436 18.8 28.9136 19.11 28.3936 19.49C27.8936 19.87 27.4436 20.26 27.0436 20.66C26.6436 21.06 26.3136 21.45 26.0536 21.83C25.8136 22.19 25.6936 22.48 25.6936 22.7C25.6936 22.94 25.8536 23.17 26.1736 23.39C26.5136 23.59 26.9336 23.77 27.4336 23.93C27.9536 24.09 28.5236 24.23 29.1436 24.35C29.7636 24.47 30.3736 24.56 30.9736 24.62C31.4736 24.68 32.0236 24.76 32.6236 24.86C33.2236 24.96 33.7836 25.12 34.3036 25.34C34.8236 25.56 35.2636 25.86 35.6236 26.24C35.9836 26.6 36.1636 27.07 36.1636 27.65Z" fill="white"/>
</svg>
